<svg width="804" height="559" viewBox="0 0 804 559" fill="none" xmlns="http://www.w3.org/2000/svg">
<path fill-rule="evenodd" clip-rule="evenodd" d="M386.741 32.3739C465.548 27.082 543.163 -18.365 616.753 9.70271C698.59 40.9158 773.045 106.256 797.045 188.866C820.804 270.645 768.674 351.172 739.192 431.15C710.81 508.145 687.115 586.215 628.893 645.025C561.774 712.823 483.076 781.449 386.741 787.167C288.419 793.004 193.457 741.625 122.235 675.103C56.4934 613.699 31.1133 525.034 12.8602 437.956C-3.58621 359.498 -7.39298 277.997 23.4411 203.797C52.8931 132.923 108.123 72.3781 178.595 39.1255C242.682 8.88602 315.747 37.1413 386.741 32.3739Z" fill="#DA803C" fill-opacity="0.4"/>
</svg>
