<svg width="868" height="483" viewBox="0 0 868 483" fill="none" xmlns="http://www.w3.org/2000/svg">
<path fill-rule="evenodd" clip-rule="evenodd" d="M434.122 38.0665C522.3 32.0097 609.144 -20.0064 691.485 12.1183C783.053 47.8431 866.362 122.628 893.216 217.179C919.799 310.778 861.471 402.945 828.483 494.483C796.726 582.608 770.213 671.962 705.069 739.274C629.969 816.872 541.912 895.416 434.122 901.962C324.109 908.642 217.855 849.836 138.165 773.699C64.6055 703.419 36.2075 601.939 15.7839 502.274C-2.6181 412.474 -6.87753 319.193 27.623 234.268C60.5771 153.149 122.374 83.8531 201.227 45.794C272.934 11.1836 354.686 43.523 434.122 38.0665Z" stroke="#FB3B00" stroke-width="2"/>
</svg>
